<svg xmlns="http://www.w3.org/2000/svg" width="213" height="253" fill="none" viewBox="0 0 213 253"><path fill="#E10E49" stroke="#E10E49" d="M35.5906 210.97C9.48771 180.565 -27.0563 104.78 35.5906 44.8872L53.6618 65.54C38.1722 85.6192 16.4867 139.374 53.6618 193.76L35.5906 210.97Z"/><path fill="#E10E49" stroke="#E10E49" d="M45.917 35.5906C76.3225 9.48771 152.107 -27.0563 212 35.5906L191.347 53.6618C171.268 38.1722 117.513 16.4867 63.1277 53.6618L45.917 35.5906Z"/><path fill="#E10E49" stroke="#E10E49" d="M208.558 216.994C178.152 243.097 102.368 279.641 42.4749 216.994L63.1277 198.923C83.2068 214.412 136.961 236.098 191.347 198.923L208.558 216.994Z"/><path fill="#fff" d="M32.7597 183.223C32.9612 183.504 33.0911 183.796 33.1495 184.101C33.2059 184.407 33.1814 184.7 33.076 184.98C32.9686 185.261 32.7707 185.505 32.4821 185.712C32.2281 185.894 31.9864 185.991 31.7569 186.004C31.5255 186.019 31.3046 185.975 31.0941 185.872C30.8837 185.77 30.6839 185.633 30.4948 185.463C30.3023 185.292 30.1189 185.114 29.9443 184.927C29.7165 184.683 29.5339 184.483 29.3966 184.328C29.2559 184.172 29.1359 184.072 29.0365 184.027C28.9357 183.98 28.8304 183.995 28.7208 184.074L28.6977 184.091C28.4129 184.295 28.2476 184.531 28.2016 184.8C28.1542 185.067 28.2429 185.358 28.4678 185.671C28.701 185.996 28.955 186.2 29.2298 186.283C29.5046 186.365 29.7497 186.386 29.9651 186.345L30.1979 187.157C29.8457 187.235 29.5257 187.232 29.2376 187.147C28.9463 187.062 28.6887 186.926 28.4649 186.74C28.2378 186.553 28.0442 186.348 27.8842 186.125C27.7821 185.982 27.6821 185.807 27.5843 185.597C27.4832 185.387 27.4225 185.158 27.4022 184.91C27.3805 184.661 27.4331 184.403 27.56 184.137C27.687 183.872 27.9265 183.612 28.2785 183.36L31.1989 181.266L31.6873 181.947L31.0871 182.377L31.1119 182.412C31.2412 182.389 31.3993 182.392 31.5863 182.421C31.7732 182.45 31.9693 182.527 32.1745 182.65C32.3798 182.774 32.5749 182.965 32.7597 183.223ZM32.0735 183.557C31.8803 183.288 31.6646 183.099 31.4263 182.99C31.1867 182.88 30.9494 182.837 30.7144 182.863C30.4781 182.887 30.2675 182.965 30.0828 183.097L29.4595 183.544C29.5148 183.548 29.5921 183.589 29.6913 183.666C29.7872 183.743 29.8913 183.838 30.0035 183.949C30.1125 184.061 30.2174 184.17 30.3183 184.279C30.4159 184.386 30.4958 184.473 30.5578 184.54C30.7078 184.7 30.864 184.839 31.0263 184.955C31.1853 185.071 31.3496 185.14 31.5192 185.161C31.6855 185.182 31.8552 185.13 32.0283 185.006C32.265 184.836 32.3811 184.62 32.3767 184.358C32.3691 184.096 32.268 183.829 32.0735 183.557Z"/><path fill="#fff" d="M23.0652 167.906L18.1219 170.211L17.7797 169.477L18.5263 169.129L18.5023 169.078C18.2157 169.102 17.9412 169.031 17.6788 168.866C17.4164 168.701 17.2161 168.471 17.078 168.175C17.052 168.119 17.0205 168.049 16.9837 167.964C16.9468 167.879 16.9205 167.815 16.9047 167.77L17.6771 167.409C17.6827 167.438 17.7006 167.502 17.7307 167.6C17.7577 167.697 17.7948 167.796 17.8418 167.897C17.9539 168.137 18.1044 168.328 18.2933 168.47C18.479 168.611 18.6854 168.695 18.9124 168.722C19.1362 168.748 19.3597 168.709 19.5828 168.605L22.711 167.146L23.0652 167.906Z"/><path fill="#fff" d="M11.1533 152.008L11.8379 151.819L12.5899 154.544L11.9053 154.733L11.1533 152.008ZM10.4264 154.286L10.2034 153.478L15.215 152.095C15.4432 152.032 15.6052 151.952 15.701 151.854C15.794 151.755 15.8453 151.647 15.8552 151.532C15.8621 151.414 15.8491 151.296 15.8164 151.178C15.7918 151.089 15.7671 151.017 15.7422 150.962C15.7151 150.908 15.6934 150.865 15.6771 150.833L16.3574 150.468C16.3931 150.517 16.4347 150.588 16.4823 150.681C16.5322 150.772 16.578 150.894 16.6195 151.044C16.6825 151.273 16.6952 151.51 16.6575 151.756C16.6192 152 16.5195 152.221 16.3584 152.421C16.1966 152.617 15.9628 152.758 15.657 152.842L10.4264 154.286Z"/><path fill="#fff" d="M13.6344 137.028L8.21365 137.634L8.12046 136.802L13.5412 136.195L13.6344 137.028ZM7.26281 137.312C7.28097 137.474 7.24135 137.62 7.14393 137.75C7.04625 137.878 6.91977 137.951 6.76449 137.968C6.60921 137.985 6.46983 137.943 6.34635 137.84C6.22261 137.734 6.15166 137.601 6.13349 137.438C6.11533 137.276 6.15509 137.131 6.25277 137.003C6.35018 136.873 6.47653 136.8 6.63181 136.782C6.78709 136.765 6.9266 136.809 7.05035 136.914C7.17382 137.017 7.24465 137.15 7.26281 137.312Z"/><path fill="#fff" d="M13.0071 120.298C12.9739 120.808 12.8248 121.24 12.5598 121.593C12.2949 121.946 11.9445 122.207 11.5087 122.378C11.0729 122.549 10.5834 122.617 10.04 122.582C9.4872 122.546 9.00597 122.412 8.59632 122.182C8.18446 121.948 7.87115 121.641 7.65638 121.259C7.4394 120.875 7.3469 120.437 7.37889 119.946C7.4038 119.563 7.49712 119.223 7.65886 118.925C7.82059 118.627 8.03541 118.388 8.30332 118.209C8.57122 118.029 8.87681 117.927 9.22007 117.902L9.16564 118.738C8.91343 118.786 8.6845 118.913 8.47884 119.121C8.27097 119.325 8.15505 119.612 8.13106 119.981C8.10984 120.307 8.17628 120.598 8.33038 120.855C8.48227 121.109 8.70732 121.315 9.00552 121.472C9.3015 121.626 9.65503 121.717 10.0661 121.743C10.4866 121.771 10.8571 121.729 11.1775 121.617C11.4981 121.502 11.7526 121.329 11.9409 121.097C12.1293 120.862 12.2343 120.58 12.2559 120.249C12.27 120.032 12.245 119.832 12.181 119.65C12.1169 119.468 12.018 119.311 11.8843 119.179C11.7505 119.047 11.5861 118.948 11.391 118.883L11.4455 118.047C11.7637 118.115 12.0455 118.251 12.2908 118.454C12.534 118.655 12.7212 118.913 12.8526 119.227C12.9817 119.539 13.0332 119.896 13.0071 120.298Z"/><path fill="#fff" d="M8.35195 100.41L15.4137 102.149L15.2134 102.963L8.15157 101.224L8.35195 100.41Z"/><path fill="#fff" d="M20.4351 86.9822C20.2218 87.4625 19.9318 87.8298 19.5651 88.084C19.1972 88.3351 18.7799 88.4697 18.3134 88.4879C17.8456 88.503 17.3564 88.3972 16.8458 88.1705C16.3351 87.9437 15.9264 87.6509 15.6195 87.2919C15.3115 86.9297 15.1226 86.5325 15.053 86.1001C14.9822 85.6645 15.0467 85.2217 15.2465 84.7717C15.3618 84.512 15.5189 84.2748 15.7179 84.0601C15.9168 83.8454 16.1598 83.6774 16.4467 83.5561C16.7315 83.4339 17.0604 83.3818 17.4332 83.3996C17.806 83.4175 18.225 83.5298 18.6902 83.7363L19.0148 83.8804L17.3086 87.7232L16.6465 87.4292L18.0068 84.3654C17.7256 84.2405 17.4496 84.1853 17.1789 84.1998C16.9092 84.2122 16.6649 84.2928 16.446 84.4417C16.228 84.5884 16.0576 84.8002 15.9346 85.0772C15.7991 85.3823 15.7576 85.6799 15.8102 85.97C15.8615 86.257 15.9808 86.5133 16.1681 86.7389C16.3554 86.9646 16.5865 87.1384 16.8613 87.2604L17.3027 87.4564C17.6792 87.6236 18.0272 87.7003 18.3466 87.6868C18.6649 87.6701 18.944 87.5751 19.1841 87.402C19.422 87.2279 19.6097 86.9861 19.747 86.6767C19.8364 86.4754 19.889 86.2812 19.9048 86.0939C19.9193 85.9036 19.8957 85.7234 19.8339 85.5535C19.7699 85.3826 19.6657 85.2263 19.5215 85.0845L20.0577 84.4367C20.2742 84.6261 20.4367 84.855 20.5455 85.1234C20.6521 85.3909 20.6983 85.6835 20.6843 86.001C20.668 86.3176 20.585 86.6446 20.4351 86.9822Z"/><path fill="#fff" d="M27.2791 65.7847L27.0135 66.5206C26.884 66.486 26.7442 66.4717 26.5942 66.4777C26.4437 66.4805 26.2911 66.5226 26.1366 66.604C25.982 66.6855 25.8337 66.8253 25.6916 67.0234C25.497 67.2947 25.3975 67.5656 25.3928 67.8361C25.3876 68.1033 25.4803 68.3052 25.6707 68.4418C25.84 68.5632 26.0179 68.5975 26.2043 68.5448C26.3907 68.492 26.6104 68.3583 26.8635 68.1435L27.497 67.6015C27.8774 67.2741 28.2363 67.0844 28.5738 67.0322C28.9094 66.9786 29.2321 67.0629 29.5418 67.285C29.7957 67.4671 29.9703 67.703 30.0656 67.9927C30.1622 68.2805 30.175 68.5956 30.1042 68.9381C30.0334 69.2806 29.8745 69.6241 29.6275 69.9684C29.3033 70.4205 28.9368 70.7244 28.5281 70.8799C28.1194 71.0355 27.6983 71.0175 27.2646 70.8259L27.5666 70.0636C27.8493 70.1731 28.1117 70.185 28.3538 70.0994C28.5972 70.0118 28.819 69.8285 29.019 69.5495C29.2467 69.2321 29.3601 68.9318 29.3592 68.6486C29.3578 68.3621 29.2619 68.1505 29.0715 68.014C28.9176 67.9036 28.75 67.865 28.5689 67.8982C28.3858 67.9301 28.1883 68.039 27.9763 68.2249L27.2733 68.8395C26.886 69.1764 26.5231 69.3677 26.1845 69.4133C25.8454 69.4556 25.5228 69.367 25.217 69.1477C24.9669 68.9683 24.796 68.7394 24.7043 68.461C24.614 68.1807 24.6017 67.879 24.6672 67.5561C24.7342 67.2312 24.8794 66.9129 25.1029 66.6012C25.4175 66.1626 25.7606 65.8872 26.1323 65.7751C26.5055 65.661 26.8877 65.6642 27.2791 65.7847Z"/><path fill="#fff" d="M77.3484 27.2432C76.8864 27.4937 76.4325 27.6079 75.9869 27.5856C75.5422 27.5601 75.1294 27.4123 74.7486 27.1421C74.3687 26.8687 74.0456 26.4865 73.7793 25.9953C73.513 25.5042 73.3678 25.0228 73.3436 24.5511C73.3204 24.0762 73.4131 23.6462 73.6217 23.2611C73.8313 22.8728 74.1525 22.5613 74.5853 22.3265C74.8351 22.1911 75.1043 22.099 75.3929 22.0502C75.6815 22.0014 75.9765 22.0165 76.2779 22.0955C76.5781 22.1724 76.8705 22.3316 77.155 22.5732C77.4395 22.8148 77.7031 23.1594 77.9457 23.6068L78.115 23.919L74.4189 25.9232L74.0736 25.2864L77.0205 23.6884C76.8738 23.4179 76.6887 23.2058 76.4654 23.0522C76.2442 22.8975 76.0014 22.8123 75.7371 22.7967C75.4749 22.78 75.2106 22.8439 74.9442 22.9883C74.6508 23.1475 74.4364 23.358 74.301 23.6199C74.1666 23.8786 74.1048 24.1545 74.1156 24.4476C74.1264 24.7406 74.2035 25.0193 74.3468 25.2836L74.577 25.7082C74.7733 26.0703 75.0022 26.3434 75.2637 26.5275C75.526 26.7084 75.8051 26.8035 76.101 26.8127C76.3957 26.8199 76.6919 26.7428 76.9895 26.5814C77.183 26.4765 77.3432 26.3546 77.4699 26.2159C77.5976 26.0739 77.6888 25.9167 77.7435 25.7444C77.797 25.5699 77.8098 25.3825 77.782 25.1822L78.6021 24.996C78.6581 25.2781 78.6473 25.5586 78.5697 25.8377C78.4909 26.1146 78.3492 26.3747 78.1443 26.6177C77.9383 26.8587 77.673 27.0672 77.3484 27.2432Z"/><path fill="#fff" d="M95.9462 13.2913L95.5767 19.0951L94.7602 19.3393L91.2647 14.6915L92.1357 14.431L94.8238 18.1638L94.8782 18.1476L95.0752 13.5518L95.9462 13.2913Z"/><path fill="#fff" d="M114.824 15.1327C114.301 15.177 113.839 15.0996 113.44 14.9005C113.042 14.6989 112.724 14.398 112.483 13.9978C112.245 13.5951 112.102 13.1154 112.055 12.5586C112.008 12.0019 112.068 11.5027 112.235 11.0609C112.404 10.6165 112.661 10.2598 113.007 9.99059C113.354 9.71885 113.773 9.56223 114.264 9.52073C114.547 9.49679 114.831 9.52033 115.115 9.59134C115.399 9.66236 115.663 9.79445 115.907 9.9876C116.151 10.1784 116.355 10.4415 116.519 10.7769C116.683 11.1123 116.786 11.5336 116.829 12.0408L116.859 12.3946L112.67 12.749L112.609 12.0271L115.949 11.7446C115.923 11.4379 115.839 11.1695 115.695 10.9392C115.555 10.7088 115.367 10.5335 115.131 10.4132C114.897 10.2928 114.629 10.2454 114.327 10.2709C113.995 10.299 113.714 10.4059 113.485 10.5916C113.258 10.7747 113.091 11.0027 112.983 11.2755C112.876 11.5484 112.835 11.8346 112.86 12.1342L112.901 12.6154C112.935 13.0259 113.036 13.3678 113.201 13.6413C113.369 13.9122 113.587 14.1112 113.854 14.2383C114.121 14.363 114.423 14.4111 114.761 14.3825C114.98 14.364 115.176 14.3165 115.347 14.2403C115.521 14.1614 115.668 14.054 115.787 13.918C115.906 13.7796 115.993 13.6131 116.048 13.4184L116.874 13.5766C116.812 13.8574 116.69 14.1101 116.507 14.3347C116.323 14.5569 116.089 14.7382 115.804 14.8787C115.519 15.0169 115.192 15.1016 114.824 15.1327Z"/><path fill="#fff" d="M133.596 11.5238L133.197 14.7807L132.365 14.6788L133.028 9.26469L133.832 9.36312L133.728 10.2091L133.799 10.2177C133.959 9.95832 134.179 9.76103 134.458 9.62585C134.737 9.48832 135.081 9.44459 135.49 9.49467C135.857 9.53957 136.168 9.65406 136.425 9.83812C136.682 10.0198 136.868 10.2716 136.983 10.5935C137.099 10.9129 137.129 11.303 137.073 11.7636L136.651 15.2038L135.819 15.1019L136.234 11.7181C136.286 11.2927 136.216 10.9479 136.024 10.6835C135.833 10.4167 135.544 10.2598 135.159 10.2126C134.893 10.18 134.649 10.2086 134.426 10.2981C134.205 10.3879 134.021 10.5359 133.874 10.7421C133.727 10.9483 133.635 11.2089 133.596 11.5238Z"/><path fill="#fff" d="M155.704 13.7809L155.487 14.4574L152.795 13.5968L153.011 12.9203L155.704 13.7809ZM154.194 11.9263L154.992 12.1815L153.409 17.1335C153.337 17.3591 153.316 17.5386 153.345 17.6723C153.377 17.8044 153.439 17.9062 153.531 17.9777C153.625 18.0477 153.731 18.1014 153.848 18.1389C153.936 18.167 154.01 18.1855 154.069 18.1945C154.129 18.2013 154.177 18.2067 154.213 18.2107L154.146 18.9797C154.086 18.9827 154.004 18.9789 153.9 18.9682C153.796 18.9597 153.669 18.9317 153.521 18.8841C153.295 18.8121 153.09 18.6929 152.904 18.5268C152.721 18.3613 152.59 18.1567 152.511 17.9128C152.435 17.6697 152.445 17.397 152.542 17.0949L154.194 11.9263Z"/><path fill="#fff" d="M172.456 22.1629L171.693 21.9914C171.711 21.8585 171.708 21.718 171.683 21.57C171.662 21.4209 171.601 21.2748 171.501 21.1317C171.401 20.9885 171.243 20.8588 171.029 20.7426C170.736 20.5835 170.454 20.5185 170.185 20.5477C169.92 20.5759 169.731 20.6931 169.619 20.8991C169.52 21.0823 169.508 21.263 169.584 21.4414C169.659 21.6197 169.819 21.821 170.064 22.0453L170.681 22.606C171.053 22.9426 171.287 23.275 171.38 23.6033C171.476 23.9296 171.432 24.2603 171.251 24.5953C171.102 24.87 170.889 25.0727 170.614 25.2034C170.34 25.3352 170.029 25.3874 169.681 25.3599C169.332 25.3324 168.971 25.2177 168.599 25.0157C168.11 24.7505 167.763 24.4248 167.557 24.0388C167.352 23.6527 167.317 23.2326 167.453 22.7784L168.247 22.9828C168.174 23.2769 168.195 23.5388 168.31 23.7682C168.427 23.9988 168.637 24.1959 168.938 24.3596C169.282 24.5458 169.594 24.6208 169.875 24.5845C170.159 24.5474 170.357 24.4258 170.469 24.2197C170.559 24.0533 170.576 23.8822 170.521 23.7066C170.466 23.529 170.333 23.3466 170.122 23.1595L169.425 22.5389C169.042 22.1967 168.807 21.8605 168.719 21.5302C168.635 21.199 168.683 20.868 168.862 20.5371C169.009 20.2665 169.215 20.0684 169.479 19.9427C169.746 19.8181 170.044 19.7681 170.373 19.7928C170.703 19.8186 171.037 19.9229 171.374 20.1058C171.849 20.3631 172.165 20.6691 172.323 21.0239C172.482 21.3799 172.527 21.7595 172.456 22.1629Z"/><path fill="#fff" d="M94.145 224.65L92.8209 227.652L92.0541 227.314L94.2552 222.323L94.996 222.65L94.6521 223.429L94.7171 223.458C94.9458 223.256 95.2132 223.131 95.5193 223.082C95.8264 223.031 96.1684 223.089 96.5453 223.255C96.8832 223.404 97.1483 223.604 97.3406 223.855C97.5338 224.103 97.6392 224.398 97.6568 224.739C97.6753 225.079 97.5909 225.46 97.4037 225.885L96.005 229.056L95.2382 228.718L96.6139 225.599C96.7869 225.207 96.8198 224.856 96.7126 224.548C96.6065 224.237 96.3758 224.003 96.0205 223.847C95.7758 223.739 95.5336 223.695 95.294 223.716C95.0565 223.739 94.8377 223.827 94.6374 223.982C94.4371 224.137 94.273 224.359 94.145 224.65Z"/><path fill="#fff" d="M110.995 233.911C110.477 233.826 110.048 233.639 109.709 233.349C109.373 233.056 109.137 232.687 109.001 232.24C108.868 231.792 108.846 231.291 108.936 230.74C109.026 230.189 109.206 229.719 109.475 229.331C109.747 228.941 110.084 228.658 110.484 228.481C110.888 228.302 111.332 228.252 111.818 228.331C112.099 228.377 112.368 228.469 112.626 228.607C112.884 228.745 113.108 228.937 113.298 229.184C113.489 229.429 113.623 229.734 113.7 230.099C113.777 230.464 113.775 230.898 113.693 231.4L113.636 231.751L109.486 231.074L109.602 230.359L112.911 230.898C112.961 230.595 112.944 230.314 112.861 230.056C112.781 229.798 112.641 229.582 112.442 229.408C112.244 229.234 111.996 229.123 111.697 229.074C111.368 229.021 111.069 229.056 110.802 229.18C110.537 229.303 110.32 229.483 110.149 229.722C109.978 229.96 109.869 230.228 109.82 230.524L109.743 231.001C109.676 231.408 109.69 231.764 109.784 232.069C109.881 232.373 110.044 232.619 110.272 232.807C110.501 232.993 110.782 233.113 111.117 233.168C111.334 233.203 111.535 233.205 111.72 233.173C111.908 233.138 112.076 233.07 112.225 232.967C112.374 232.862 112.499 232.721 112.599 232.546L113.362 232.9C113.234 233.158 113.054 233.373 112.821 233.546C112.59 233.717 112.318 233.836 112.008 233.903C111.697 233.968 111.36 233.97 110.995 233.911Z"/><path fill="#fff" d="M127.554 235.214L125.215 230.013L126.089 229.902L127.787 233.895L127.843 233.888L128.47 229.598L129.358 229.485L131.026 233.467L131.082 233.46L131.725 229.183L132.599 229.071L131.64 234.692L130.823 234.796L129.109 230.791L129.025 230.802L128.372 235.109L127.554 235.214Z"/><path fill="#fff" d="M150.476 225.43L149.873 225.928C149.779 225.833 149.666 225.749 149.534 225.678C149.403 225.604 149.25 225.563 149.075 225.554C148.901 225.546 148.702 225.591 148.479 225.689C148.174 225.824 147.95 226.007 147.809 226.237C147.668 226.465 147.645 226.686 147.74 226.9C147.824 227.091 147.96 227.211 148.147 227.26C148.334 227.309 148.592 227.306 148.919 227.25L149.74 227.105C150.234 227.016 150.639 227.035 150.957 227.162C151.273 227.287 151.508 227.523 151.662 227.872C151.788 228.158 151.818 228.45 151.753 228.748C151.69 229.044 151.541 229.322 151.306 229.581C151.07 229.84 150.759 230.055 150.371 230.226C149.862 230.451 149.392 230.526 148.961 230.452C148.53 230.378 148.177 230.149 147.901 229.764L148.548 229.261C148.736 229.499 148.956 229.642 149.208 229.691C149.462 229.74 149.746 229.695 150.06 229.556C150.418 229.399 150.668 229.198 150.811 228.953C150.956 228.706 150.981 228.475 150.886 228.26C150.81 228.087 150.685 227.969 150.512 227.905C150.338 227.84 150.113 227.833 149.836 227.885L148.918 228.057C148.413 228.151 148.003 228.131 147.689 227.998C147.375 227.862 147.142 227.622 146.99 227.277C146.866 226.996 146.835 226.712 146.898 226.425C146.963 226.138 147.105 225.872 147.326 225.627C147.549 225.382 147.836 225.181 148.187 225.026C148.68 224.809 149.116 224.746 149.493 224.838C149.872 224.93 150.2 225.127 150.476 225.43Z"/><g clip-path="url(#clip0_14_2)"><path fill="#A9A9A9" d="M106.415 159.123C108.567 161.812 109.642 165.039 109.642 168.804C109.642 177.947 102.651 184.939 93.5074 184.939C84.3642 184.939 77.3724 177.947 77.3724 168.804C77.3724 159.661 84.3642 152.669 93.5074 152.669C95.6587 152.669 97.81 153.207 99.9614 154.283L107.491 144.602C102.651 139.223 100.499 131.694 101.575 124.702L90.8182 120.937C88.129 125.24 83.2885 128.467 77.3724 128.467C68.2292 128.467 61.2374 121.475 61.2374 112.332C61.2374 103.188 68.2292 96.1965 77.3724 96.1965C86.5155 96.1965 93.5074 103.188 93.5074 112.332V113.407L104.264 117.172C107.491 110.718 113.945 105.878 121.475 104.802V92.9695C115.021 91.356 109.642 84.902 109.642 77.3724C109.642 68.2292 116.634 61.2374 125.777 61.2374C134.921 61.2374 141.912 68.2292 141.912 77.3724C141.912 84.902 136.534 91.356 130.08 92.9695V104.802C137.61 105.878 144.064 110.718 147.291 117.172L158.047 113.407V112.332C158.047 103.188 165.039 96.1965 174.182 96.1965C183.326 96.1965 190.317 103.188 190.317 112.332C190.317 121.475 183.326 128.467 174.182 128.467C168.266 128.467 163.426 125.24 160.737 120.937L149.98 124.702C151.056 131.694 148.904 139.223 144.064 144.602L151.593 154.283C153.745 153.207 155.896 152.669 158.047 152.669C167.191 152.669 174.182 159.661 174.182 168.804C174.182 177.947 167.191 184.939 158.047 184.939C148.904 184.939 141.912 177.947 141.912 168.804C141.912 165.039 142.988 161.812 145.139 159.123L137.61 149.442C130.08 153.745 121.475 153.745 113.945 149.442L106.415 159.123Z"/></g><defs><clipPath id="clip0_14_2"><rect width="129.08" height="129.08" fill="#fff" transform="translate(61.2374 61.2374)"/></clipPath></defs></svg>